<?xml version="1.0" encoding="utf-8"?>
<!-- Generator: Adobe Illustrator 22.0.1, SVG Export Plug-In . SVG Version: 6.00 Build 0)  -->
<svg version="1.1" xmlns="http://www.w3.org/2000/svg" xmlns:xlink="http://www.w3.org/1999/xlink" x="0px" y="0px"
	 viewBox="0 0 1366 768" style="enable-background:new 0 0 1366 768;" xml:space="preserve">
<style type="text/css">
	.st0{fill:#F3B22B;}
	.st1{fill:#BA8424;}
	.st2{fill:#383838;}
	.st3{fill:#161616;}
	.st4{fill:#656565;}
	.st5{fill:#FC4E45;stroke:#FC4E45;stroke-miterlimit:10;}
	.st6{fill:#FFFFFF;stroke:#DA292B;stroke-width:11.3386;stroke-miterlimit:10;}
	.st7{fill:#E50D18;stroke:#E50D18;stroke-miterlimit:10;}
	.st8{fill:#FFFFFF;stroke:#E50D18;stroke-width:11.3386;stroke-miterlimit:10;}
	.st9{fill:#8ED8E9;}
	.st10{fill:#FF313C;}
	.st11{fill:#95AFB5;}
	.st12{fill:#B6D8E1;}
	.st13{fill:#D7EAED;}
	.st14{fill:#232323;}
	.st15{fill:#AE4954;}
	.st16{fill:#D3596B;}
	.st17{fill:#F38077;}
	.st18{fill:#B73F4F;}
	.st19{fill:#E25D60;}
	.st20{fill:#88C057;}
	.st21{fill:#A4E869;}
	.st22{fill:#659C35;}
	.st23{fill:#F2681C;}
	.st24{fill:#ED8F20;}
	.st25{fill:#DD7017;}
	.st26{fill:#E9A974;}
	.st27{fill:#CD9061;}
	.st28{fill:#CD2A00;}
	.st29{fill:#FF3501;}
	.st30{fill:#5EAC24;}
	.st31{opacity:8.000000e-02;}
	.st32{fill:#FEFBFF;stroke:#E5E5E5;stroke-width:2.8346;stroke-miterlimit:10;}
	.st33{fill:#C4252D;}
	.st34{fill:#E32733;}
	.st35{opacity:0.14;}
	.st36{fill:#E2A489;}
	.st37{fill:#B87F6A;}
	.st38{fill:#D69781;}
	.st39{fill:#F1B5A2;}
	.st40{fill:#AC7766;}
	.st41{fill:none;stroke:#B87F6A;stroke-width:14.1732;stroke-miterlimit:10;}
	.st42{fill:#1B2BEF;}
	.st43{fill:#FEF7F9;}
	.st44{font-family:'BigJohn';}
	.st45{font-size:37.3407px;}
	.st46{font-size:31.7627px;}
</style>
<g id="bg">
	<rect x="-1386" class="st0" width="1366" height="768"/>
	<rect x="-1386" y="569" class="st1" width="1366" height="199"/>
</g>
<g id="Layer_1">
	<g>
		<g>
			<path class="st2" d="M-1090.8,445.9h-50.9c-2,0-3.7-1.3-4.4-3c-3.1,0.4-6.2,0.2-7.7-2.1c-3.4-5.1,0-20.2,5.1-32
				c5.1-11.8,11.8-16.8,23.6-20.2c9.1-2.6,27.3-3.2,35.1-3.3l-0.9-7.5c-0.3-2.5-2.4-4.3-4.8-4.2c-6.1,0.1-17.7,0.5-29.3,1.6
				c-16.8,1.7-25.3,1.7-33.7,16.8c-7.9,14.2-19.4,41.3-21.7,48.4c-0.1,0.3-1,2.6-1,2.9c-0.5,2.6-1.6,13.5,5.9,21.1
				c8.4,8.4,20.2,13.5,38.7,13.5h48.6c2.9,0,5.1-2.5,4.8-5.3l-2.4-22.4C-1086.3,447.8-1088.3,445.9-1090.8,445.9z"/>
			<path class="st3" d="M-1148.8,408.9c-5.1,11.8-8.4,26.9-5.1,32c1.5,2.3,7.9,5.5,10.9,5.1c-0.4-0.9-1.7-3.4-1.7-5.1
				c0-3.4,0-5.1,0.8-8.4c1.8-7.3,8.4-20.2,11.8-23.6c3.4-3.4,6.7-6.7,15.2-6.7h23.2c2.9,0,5.1-2.5,4.8-5.4l-1.3-11.4
				c-7.8,0.1-26,0.7-35.1,3.3C-1137,392-1143.7,397.1-1148.8,408.9z"/>
		</g>
		<path class="st4" d="M-1168.2,445.9c1.7-1.7,5.1,0,8.4,3.4c3.4,3.4,6.7,5.1,11.8,6.7c5.1,1.7,20.2,3.4,20.2,6.7
			c0,3.4-11.8,11.8-26.9,5.1C-1169.8,461.1-1168.2,445.9-1168.2,445.9z"/>
	</g>
	<g>
		<g>
			<path class="st2" d="M-319.2,445.9h50.9c2,0,3.7-1.3,4.4-3c3.1,0.4,6.2,0.2,7.7-2.1c3.4-5.1,0-20.2-5.1-32s-11.8-16.8-23.6-20.2
				c-9.1-2.6-27.3-3.2-35.1-3.3l0.9-7.5c0.3-2.5,2.4-4.3,4.8-4.2c6.1,0.1,17.7,0.5,29.3,1.6c16.8,1.7,25.3,1.7,33.7,16.8
				c7.9,14.2,19.4,41.3,21.7,48.4c0.1,0.3,1,2.6,1,2.9c0.5,2.6,1.6,13.5-5.9,21.1c-8.4,8.4-20.2,13.5-38.7,13.5h-48.6
				c-2.9,0-5.1-2.5-4.8-5.3l2.4-22.4C-323.7,447.8-321.7,445.9-319.2,445.9z"/>
			<path class="st3" d="M-261.2,408.9c5.1,11.8,8.4,26.9,5.1,32c-1.5,2.3-7.9,5.5-10.9,5.1c0.4-0.9,1.7-3.4,1.7-5.1
				c0-3.4,0-5.1-0.8-8.4c-1.8-7.3-8.4-20.2-11.8-23.6s-6.7-6.7-15.2-6.7h-23.2c-2.9,0-5.1-2.5-4.8-5.4l1.3-11.4
				c7.8,0.1,26,0.7,35.1,3.3C-273,392-266.3,397.1-261.2,408.9z"/>
		</g>
		<path class="st4" d="M-241.8,445.9c-1.7-1.7-5.1,0-8.4,3.4c-3.4,3.4-6.7,5.1-11.8,6.7c-5.1,1.7-20.2,3.4-20.2,6.7
			c0,3.4,11.8,11.8,26.9,5.1C-240.2,461.1-241.8,445.9-241.8,445.9z"/>
	</g>
	<path class="st5" d="M-517,851.8h-367.6c-115.2,0-209.5-94.3-209.5-209.5V431.6c0-47,38.1-85,85-85h616.5c47,0,85,38.1,85,85v210.8
		C-307.5,757.6-401.8,851.8-517,851.8z"/>
	<ellipse class="st6" cx="-700.8" cy="351.6" rx="393.3" ry="70.7"/>
	<path class="st7" d="M-699.9,418.1c-217.2,0-393.3-31.7-393.3-70.7h-1.7v295.7c0,115.3,94.3,209.6,209.6,209.6h367.4
		c115.3,0,209.6-94.3,209.6-209.6V353.9C-326.7,389.9-495,418.1-699.9,418.1z"/>
	<ellipse class="st8" cx="-700.8" cy="346.6" rx="393.3" ry="70.7"/>
	<ellipse class="st9" cx="-700.8" cy="346.6" rx="388.2" ry="69.8"/>
	<path class="st10" d="M-1073.6,366.1c47-29.1,196.1-50.3,372.8-50.3S-375,337.1-328,366.1c10-6.2,15.4-12.8,15.4-19.5
		c0-38.6-173.8-69.8-388.2-69.8S-1089,308-1089,346.6C-1089,353.3-1083.6,359.9-1073.6,366.1z"/>
</g>
<g id="Layer_3">
	<g>
		<g>
			<path class="st11" d="M-553.8,296.1c-5.4-7.4-11.7-14.6-18.9-21c-39.3-34.8-82.3-52.3-103.8-43.9c0.8,0.1,45.1,7.9,72,26.9
				C-577.4,277.1-582.9,273.4-553.8,296.1z"/>
			<path class="st12" d="M-705.4,206.2c1.5,7.1,5.2,16.7,6.9,18.2c-1.8-1.6-11.7-4.1-18.9-4.7c-7.2-0.6-18.5,7.5-18.5,7.5
				s5.4,7.6,13,13.3c13.2,10.3,27.3,5.4,34.8,1.4c-9.3,21.5,13.5,64.6,54.9,101.3c6.2,5.5,12.9,10.2,19.7,14.3
				c5.2-10.8,12.1-21.3,20.7-31c11.6-13.1,25-23.3,39.1-30.5c-29.1-22.7-23.7-19-50.8-38.1c-26.9-18.9-71.2-26.7-72-26.9
				c-1.2,0.5-2.3,1-3.3,1.6c3.1-8,6.2-22.6-5.6-34.4c-6.5-7-14.8-11.4-14.8-11.4S-706.9,199.1-705.4,206.2z"/>
			<path class="st13" d="M-613.5,357.5c42.7,25.3,92.4,24.2,92.4,24.2s-4.5-46.8-32.6-85.6c-14.1,7.2-27.5,17.4-39.1,30.5
				C-601.4,336.2-608.3,346.7-613.5,357.5z"/>
		</g>
		<circle class="st14" cx="-549.1" cy="365.1" r="7.2"/>
	</g>
	<g>
		<path class="st15" d="M-427.9,196.9c0,0-5.7-13.5,2.1-17.8c7.8-4.3,19.8-2.1,23.7,1s4.6,15.6,0,17.9
			C-406.6,200.5-427.9,196.9-427.9,196.9z"/>
		<path class="st16" d="M-422.1,188.9c0,0-2.8-6.5,1-8.6c3.8-2.1,9.6-1,11.5,0.5c1.9,1.5,2.2,7.5,0,8.7
			C-411.8,190.6-422.1,188.9-422.1,188.9z"/>
		<path class="st17" d="M-413.5,216.1c0,5.8-4.8,10.4-10.6,10.4s-8.3-4.7-8.3-10.4c0-5.8,4.5-10.2,10.4-10.2
			S-413.5,210.3-413.5,216.1z"/>
		<path class="st15" d="M-540.7,330.8c0,0-13.9,4.4-17.5-3.8c-3.5-8.2-0.2-19.9,3.2-23.5s15.9-3.1,17.9,1.7
			S-540.7,330.8-540.7,330.8z"/>
		<path class="st16" d="M-548.2,324.2c0,0-6.7,2.1-8.5-1.8c-1.7-4-0.1-9.6,1.6-11.4c1.7-1.7,7.7-1.5,8.6,0.8
			C-545.5,314.1-548.2,324.2-548.2,324.2z"/>
		<g>
			<path class="st18" d="M-390.2,213.4c-2.7-5.3-6.7-9.2-11.1-12c4.5,11.9,6.2,44.1-25.5,84.9C-460.6,329.8-511.6,338-528,337
				c-4.3-0.3-8.1-1.6-11.3-3.6c3.3,7.3,10.9,16.9,23.3,17.6c16.4,1,67.4-7.2,101.2-50.7C-381,256.9-385.2,223.2-390.2,213.4z"/>
			<path class="st19" d="M-426.8,286.3c31.7-40.8,30-72.9,25.5-84.9c-5.8-3.6-12.5-5.1-18.1-5.1c-20.6,0-29.6,22.9-30.1,34
				c-0.5,11.1-5.1,20.5-15.3,36c-10.2,15.5-47.2,25.1-53.2,25.8c-7.6,0.8-13.1,2.8-16.7,8.3c-6.6,9.8-7.5,21.3-6.3,27.8
				c0.3,1.4,0.9,3.3,1.8,5.3c3.2,2,6.9,3.3,11.3,3.6C-511.6,338-460.6,329.8-426.8,286.3z"/>
		</g>
		<circle class="st17" cx="-525.1" cy="311.9" r="7.5"/>
	</g>
	<g>
		<path class="st20" d="M-728.1,98.7c0,0,33.2,32.1,7.8,65.2c0,0-5.6,8.3-13.9,5.4c-8.2-2.9-9.6-13.9-3.8-21.2
			C-732.7,141.4-727.6,127.6-728.1,98.7z"/>
		<path class="st20" d="M-728.1,98.7c0,0,44.1,13,58.1-23c0,0,6.2-12.3,0.6-20.4c-5.2-7.5-16.8-4.5-19.1,4.3
			C-691.1,69.2-699.9,84-728.1,98.7z"/>
		<path class="st20" d="M-722.5,163.6c0,0-0.2,0.3-0.5,0.7c0.9,0.6,1.9,1.2,3,1.6c10.1,4.2,15-2.7,15-2.7c23.6-27.1-20-63.2-20-63.2
			c0.4,2.2,0.8,4.3,1.1,6.3C-715.7,117.7-704.7,140.4-722.5,163.6z"/>
		<path class="st21" d="M-670,75.7c-10.8,27.8-39.5,26.4-52,24.3c-0.2,0.1-0.5,0.2-0.7,0.2c0,0,52.9,19.8,62.9-12
			c0,0,5-10.6-2.8-19.2c-1.3-1.5-2.9-2.6-4.5-3.5C-667.6,70.9-670,75.7-670,75.7z"/>
		<path class="st22" d="M-662.9,133.5c4.2-13.3-10.8-24.7-10.8-24.7c-3.5-1.6-7.2-2.9-10.9-4.1c-15,2-33.1-3.2-41.4-5.9
			c-1.1,0-2,0-2.6,0c5.1,4.4,19.3,17.5,26.1,32.3c3.6,3.2,7.4,6.1,11.3,8.4C-670.2,152.2-662.9,133.5-662.9,133.5z"/>
		<path class="st21" d="M-728.1,98.7c0,0,33.2,32.1,7.8,65.2c0,0-5.6,8.3-13.9,5.4c-8.2-2.9-9.6-13.9-3.8-21.2
			C-732.7,141.4-727.6,127.6-728.1,98.7z"/>
		<g>
			<path class="st23" d="M-724,99.9c-1.9-0.4-3.1-0.7-3.1-0.7s1.3,1.2,3.1,3.4C-724,101.7-724,100.8-724,99.9z"/>
			<path class="st24" d="M-739,125.4c4,0.3,7.6-0.8,10.8-2.5c0.9-6.5,1.3-14.3,1.1-23.8c9.3-4.8,16.4-9.7,22-14.4
				c0.3-4.4-0.4-9-3.2-13c-8.9-12.7-114.6-50.1-148.8-53.2c-3.2-0.3-4.9,2.6-3,5.2C-840.1,51.7-754.4,124.2-739,125.4z"/>
		</g>
		<g>
			<path class="st25" d="M-825.2,37c0.4-2.4,1.1-4.7,2-7c0.6-1.7-0.2-3.5-1.9-4.2s-3.5,0.2-4.2,1.9c-1,2.7-1.8,5.4-2.3,8.2
				c-0.1,0.5-0.1,1,0.1,1.4c0.3,1.2,1.3,2.1,2.5,2.3C-827.2,39.9-825.5,38.8-825.2,37z"/>
			<path class="st25" d="M-739.8,116.8c0.7-7,3.4-14.1,8.1-21c1-1.5,0.6-3.5-0.9-4.5c-1.5-1-3.5-0.6-4.5,0.9
				c-5.3,7.9-8.4,15.9-9.2,24c0,0.4,0,0.8,0.1,1.2c0.3,1.3,1.4,2.2,2.8,2.4C-741.6,119.9-740,118.6-739.8,116.8z"/>
			<g>
				<path class="st25" d="M-729.4,59.1c0,1.3-0.7,2.5-2,3c-4.9,1.9-10.8,6.4-12.7,11.8c-0.6,1.7-2.4,2.5-4.1,1.9
					c-1-0.4-1.7-1.2-2-2.2c-0.2-0.6-0.2-1.3,0.1-1.9c2.7-7.4,9.7-12.6,15.4-15.2"/>
				<path class="st25" d="M-750.2,71.8c-0.2,0.6-0.2,1.3-0.1,1.9c0.3,1,1,1.8,2,2.2c1.7,0.6,3.5-0.3,4.1-1.9
					c2-5.5,7.8-9.9,12.7-11.8c1.3-0.5,2-1.8,2-3c-1.7-0.8-3.6-1.6-5.5-2.5C-740.5,59.2-747.5,64.4-750.2,71.8z"/>
			</g>
			<g>
				<path class="st25" d="M-780.7,98.6c-0.7-6.1,0.3-14.7,5.3-20.6c1.1-1.4,3.2-1.6,4.5-0.4c1.4,1.1,1.6,3.2,0.4,4.5
					c-3.7,4.5-4.5,11.8-3.7,17c0.2,1.4-0.5,2.7-1.7,3.3"/>
				<path class="st25" d="M-774.2,99.1c-0.8-5.2,0-12.5,3.7-17c1.1-1.4,0.9-3.4-0.4-4.5c-1.4-1.1-3.4-0.9-4.5,0.4
					c-4.9,6-5.9,14.5-5.3,20.6c1.6,1.3,3.2,2.5,4.8,3.8C-774.7,101.8-773.9,100.5-774.2,99.1z"/>
			</g>
			<g>
				<path class="st25" d="M-768.6,43.3c0,1.3-0.7,2.6-2,3.1c-3.1,1.2-6.8,4-8,7.4c-0.6,1.7-2.4,2.5-4.1,1.9c-1-0.4-1.7-1.2-2-2.2
					c-0.2-0.6-0.2-1.3,0.1-1.9c1.8-4.9,6.2-8.5,10-10.4"/>
				<path class="st25" d="M-784.6,51.6c-0.2,0.6-0.2,1.3-0.1,1.9c0.3,1,1,1.8,2,2.2c1.7,0.6,3.5-0.3,4.1-1.9c1.2-3.4,4.9-6.1,8-7.4
					c1.3-0.5,2.1-1.8,2-3.1c-2-0.7-4-1.4-6-2.1C-778.4,43.1-782.8,46.7-784.6,51.6z"/>
			</g>
			<g>
				<path class="st25" d="M-817.4,67.6c-0.6-4.4,0-10.8,3.7-15.3c1.1-1.4,3.2-1.6,4.5-0.4c1.4,1.1,1.6,3.2,0.4,4.5
					c-2.3,2.8-2.8,7.3-2.3,10.6c0.3,1.8-0.9,3.4-2.7,3.7c-0.1,0-0.2,0-0.3,0"/>
				<path class="st25" d="M-811,67c-0.5-3.3,0-7.8,2.3-10.6c1.1-1.4,0.9-3.4-0.4-4.5c-1.4-1.1-3.4-0.9-4.5,0.4
					c-3.7,4.5-4.3,10.9-3.7,15.3c1.1,1,2.3,2,3.4,3.1c0.1,0,0.2,0,0.3,0C-812,70.4-810.8,68.7-811,67z"/>
			</g>
		</g>
	</g>
	<g>
		<g>
			<path class="st26" d="M-750.4,409.7c4.9-26.3-7-69.4-21.5-105.7c-14.5-36.2-62.6-63.9-62.9-64.1c-21.9-7.2-39.9-4.2-52.8,7.1
				c-19.8,17.4-34.8,46.9-24,88.9c10.8,42.1,39.6,78.2,58.3,97.2c9.8,9.9,25.7,21.6,42.4,28.5c7,1.8,18.2,3.4,29.9-0.4
				C-761.5,455.1-755.3,436-750.4,409.7z"/>
			<path class="st27" d="M-834.7,240c0.2,0.1,48.4,27.9,62.9,64.1c14.5,36.2,26.4,79.4,21.5,105.7s-11.2,45.4-30.5,51.7
				c-11.7,3.8-22.8,2.2-29.9,0.4c15.2,6.3,31.1,8.7,43.6,2.4c12.7-6.5,37.7-33.2,29.6-74.3c-8.1-41.1-19-99.8-58.5-128.9
				C-809.9,250.7-822.8,243.9-834.7,240z"/>
		</g>
		<circle class="st27" cx="-850.4" cy="292.1" r="8.2"/>
		<circle class="st27" cx="-814.5" cy="289.6" r="4.9"/>
		<circle class="st27" cx="-823.4" cy="382.1" r="5.2"/>
		<circle class="st27" cx="-838.1" cy="404.5" r="6.3"/>
		<circle class="st27" cx="-809.4" cy="414.5" r="4.4"/>
	</g>
	<g>
		<path class="st28" d="M-913.2,240.2c-7.2,6-15.1,10.5-23.5,13.6c-29.6,10.9-64.3,3.6-88.3-20.2c-2-2-3.9-4-5.7-6.2
			c-30.1-36.1-26.4-88.9,8.4-117.9c11.6-9.7,24-14.5,36.5-15.4c10.3-0.7,20.6,1.3,30.6,5.6c0.5,0.2,0.9,0.4,1.4,0.6
			c13.9,6.2,27.1,16.8,38.6,30.6c1.8,2.2,3.6,4.4,5.2,6.6c8.4,11.4,14.5,23.5,17.7,35.6c0.1,0.5,0.3,1,0.4,1.5
			C-886.1,198.6-891.8,222.3-913.2,240.2z"/>
		<path class="st29" d="M-913.2,240.2c-7.2,6-15.1,10.5-23.5,13.6c-24.7,2.8-50.5-5.7-69.6-24.6c-2-2-3.9-4-5.7-6.2
			c-30.1-36.1-26.4-88.9,8.4-117.9c5.7-4.8,11.7-8.4,17.8-10.9c10.3-0.7,20.6,1.3,30.6,5.6c14.4,6.2,28.2,17,40,31.2
			c1.8,2.2,3.6,4.4,5.2,6.6c8.8,11.9,15,24.5,18,37C-886.1,198.6-891.8,222.3-913.2,240.2z"/>
		<path class="st30" d="M-912.5,192.9l0.9-25.6c0.1-3.3,3.9-5.2,6.5-3.3l11.9,8.4c0.3,0.2,0.7-0.1,0.6-0.4
			c-3.2-11.6-8.8-23.6-16.9-34.7l16.9-14.1c3.7-3.1,4.2-8.6,1.1-12.3l0,0c-3.1-3.7-8.6-4.2-12.3-1.1l-16.9,14.1
			c-9.5-10-20.2-17.6-31.2-22.8c-0.6-0.3-1.3,0.4-1,1l5.6,11c1.5,3-1.1,6.5-4.5,5.9L-975,115c-2.1-0.4-3.3,2.5-1.4,3.6l31.8,19.5
			c2,1.2,2.5,3.8,1.1,5.8l-13.6,19.5c-1.2,1.7,0.6,3.7,2.4,2.9l21.2-10.1c2.2-1.1,4.8,0,5.6,2.3l11.6,35.2
			C-915.6,195.6-912.6,195.1-912.5,192.9z"/>
	</g>
</g>
<g id="Layer_4">
	<path class="st7" d="M-700.3,418.1c-217.2,0-393.3-31.7-393.3-70.7h-1.7v295.7c0,115.3,94.3,209.6,209.6,209.6h367.4
		c115.3,0,209.6-94.3,209.6-209.6V353.9C-327.1,389.9-495.4,418.1-700.3,418.1z"/>
	<g class="st31">
		
			<image style="overflow:visible;" width="859" height="578" xlink:href="34F4297491C7621C.png"  transform="matrix(1 0 0 1 -1132 310)">
		</image>
	</g>
</g>
<g id="Layer_5">
	<g>
		<circle class="st32" cx="-703" cy="589.4" r="92.3"/>
		<g>
			
				<image style="overflow:visible;opacity:0.75;" width="222" height="222" xlink:href="34F4297491C76213.png"  transform="matrix(1 0 0 1 -807 485)">
			</image>
			<g>
				<g>
					<path class="st33" d="M-703,642c-39.2,0-71.7-27.2-76.8-62.6c-0.4,3.3-0.7,6.6-0.7,9.9c0,42.8,34.7,77.5,77.5,77.5
						c42.8,0,77.5-34.7,77.5-77.5c0-3.4-0.2-6.7-0.7-9.9C-631.3,614.8-663.8,642-703,642z"/>
					<path class="st34" d="M-703,642c39.2,0,71.7-27.2,76.8-62.6c-4.9-38.1-37.4-67.5-76.8-67.5c-39.4,0-72,29.5-76.8,67.5
						C-774.7,614.8-742.2,642-703,642z"/>
				</g>
			</g>
		</g>
		<g>
			<g class="st35">
				
					<image style="overflow:visible;" width="334" height="312" xlink:href="34F4297491C76214.png"  transform="matrix(1 0 0 1 -870 421)">
				</image>
			</g>
		</g>
		<text transform="matrix(1 0 0 1 -760.5294 598.6695)" class="st43 st44 st46">START</text>
	</g>
</g>
<g id="Layer_6">
	<rect class="st36" width="1366" height="768"/>
	<rect x="2" y="1" class="st37" width="58" height="567"/>
	<rect x="60" y="270" class="st38" width="419" height="419"/>
	<rect x="2" y="572" class="st39" width="1366" height="199"/>
	<g>
		<g>
			<g>
				<path class="st2" d="M407.3,451.4h-34.8c-1.4,0-2.5-0.9-3-2c-2.1,0.3-4.3,0.1-5.3-1.4c-2.3-3.5,0-13.8,3.5-21.9
					s8.1-11.5,16.1-13.8c6.2-1.8,18.7-2.2,24-2.3l-0.6-5.1c-0.2-1.7-1.6-2.9-3.3-2.9c-4.2,0.1-12.1,0.3-20.1,1.1
					c-11.5,1.2-17.3,1.2-23,11.5c-5.4,9.7-13.2,28.2-14.8,33.1c-0.1,0.2-0.7,1.8-0.7,2c-0.3,1.8-1.1,9.2,4,14.4
					c5.8,5.8,13.8,9.2,26.5,9.2h33.2c2,0,3.5-1.7,3.3-3.6l-1.6-15.3C410.4,452.7,409,451.4,407.3,451.4z"/>
				<path class="st3" d="M367.7,426.1c-3.5,8.1-5.8,18.4-3.5,21.9c1,1.5,5.4,3.7,7.5,3.5c-0.2-0.6-1.2-2.3-1.2-3.5
					c0-2.3,0-3.5,0.6-5.8c1.2-5,5.8-13.8,8.1-16.1s4.6-4.6,10.4-4.6h15.9c2,0,3.5-1.7,3.3-3.7l-0.9-7.8c-5.3,0.1-17.7,0.5-24,2.3
					C375.8,414.6,371.1,418,367.7,426.1z"/>
			</g>
			<path class="st4" d="M354.5,451.4c1.2-1.2,3.5,0,5.8,2.3s4.6,3.5,8.1,4.6s13.8,2.3,13.8,4.6s-8.1,8.1-18.4,3.5
				C353.3,461.7,354.5,451.4,354.5,451.4z"/>
		</g>
		<g>
			<g>
				<g>
					<path class="st2" d="M934.7,451.4h34.8c1.4,0,2.5-0.9,3-2c2.1,0.3,4.3,0.1,5.3-1.4c2.3-3.5,0-13.8-3.5-21.9
						s-8.1-11.5-16.1-13.8c-6.2-1.8-18.7-2.2-24-2.3l0.6-5.1c0.2-1.7,1.6-2.9,3.3-2.9c4.2,0.1,12.1,0.3,20.1,1.1
						c11.5,1.2,17.3,1.2,23,11.5c5.4,9.7,13.2,28.2,14.8,33.1c0.1,0.2,0.7,1.8,0.7,2c0.3,1.8,1.1,9.2-4,14.4
						c-5.8,5.8-13.8,9.2-26.5,9.2h-33.2c-2,0-3.5-1.7-3.3-3.6l1.6-15.3C931.6,452.7,933,451.4,934.7,451.4z"/>
					<path class="st3" d="M974.3,426.1c3.5,8.1,5.8,18.4,3.5,21.9c-1,1.5-5.4,3.7-7.5,3.5c0.2-0.6,1.2-2.3,1.2-3.5
						c0-2.3,0-3.5-0.6-5.8c-1.2-5-5.8-13.8-8.1-16.1s-4.6-4.6-10.4-4.6h-15.9c-2,0-3.5-1.7-3.3-3.7l0.9-7.8c5.3,0.1,17.7,0.5,24,2.3
						C966.2,414.6,970.9,418,974.3,426.1z"/>
				</g>
				<path class="st4" d="M987.5,451.4c-1.2-1.2-3.5,0-5.8,2.3s-4.6,3.5-8.1,4.6s-13.8,2.3-13.8,4.6s8.1,8.1,18.4,3.5
					S987.5,451.4,987.5,451.4z"/>
			</g>
			<g>
				<ellipse class="st8" cx="673.9" cy="383.5" rx="268.8" ry="48.3"/>
				<g>
					<ellipse class="st9" cx="673.9" cy="383.5" rx="265.3" ry="47.7"/>
					<g>
						<path class="st7" d="M674.5,432.4c-148.4,0-268.8-21.6-268.8-48.3h-1.2v202.1c0,78.8,64.5,143.2,143.2,143.2h251.1
							c78.8,0,143.2-64.5,143.2-143.2V388.5C929.5,413.1,814.5,432.4,674.5,432.4z"/>
						<path class="st10" d="M419.1,396.8c32.1-19.9,134-34.4,254.8-34.4s222.6,14.5,254.8,34.4c6.9-4.2,10.6-8.7,10.6-13.4
							c0-26.4-118.8-47.7-265.3-47.7s-265.3,21.4-265.3,47.7C408.6,388.1,412.2,392.6,419.1,396.8z"/>
					</g>
				</g>
			</g>
		</g>
	</g>
	
		<image style="overflow:visible;" width="800" height="592" xlink:href="../../../../../../../Desktop/Screen Shot 2017-12-26 at 21.35.40.png"  transform="matrix(1.8275 0 0 1.8275 -1154 -2066)">
	</image>
	<rect x="213" y="524" class="st37" width="86" height="13"/>
	<rect x="213" y="444" class="st37" width="86" height="13"/>
	<rect x="213" y="364" class="st37" width="86" height="13"/>
	<polygon class="st40" points="60,270 137,226 1366,226 1366,271 	"/>
	<polygon class="st40" points="137,226 137,0 60,0 60,270 	"/>
	<g>
		<g>
			<path class="st11" d="M817.5,355c-4.1-5.7-8.9-11.1-14.4-16c-29.9-26.5-62.7-39.9-79.1-33.5c0.6,0.1,34.4,6,54.8,20.5
				C799.4,340.5,795.3,337.7,817.5,355z"/>
			<path class="st12" d="M701.9,286.5c1.1,5.4,3.9,12.7,5.3,13.9c-1.4-1.2-8.9-3.1-14.4-3.6c-5.5-0.5-14.1,5.7-14.1,5.7
				s4.1,5.8,9.9,10.1c10,7.8,20.8,4.1,26.6,1.1c-7.1,16.4,10.3,49.2,41.8,77.2c4.7,4.2,9.8,7.8,15,10.9c4-8.2,9.2-16.2,15.8-23.6
				c8.8-10,19-17.7,29.8-23.2c-22.2-17.3-18.1-14.5-38.7-29.1c-20.5-14.4-54.3-20.4-54.8-20.5c-0.9,0.3-1.7,0.7-2.5,1.2
				c2.4-6.1,4.7-17.2-4.2-26.2c-5-5.3-11.3-8.7-11.3-8.7S700.7,281.1,701.9,286.5z"/>
			<path class="st13" d="M771.9,401.8c32.5,19.3,70.4,18.4,70.4,18.4s-3.4-35.7-24.9-65.2c-10.7,5.5-20.9,13.3-29.8,23.2
				C781.2,385.6,775.9,393.6,771.9,401.8z"/>
		</g>
		<circle class="st14" cx="821" cy="407.6" r="5.5"/>
	</g>
	<g>
		<path class="st15" d="M907.4,159.4c0,0-4.3-10.3,1.6-13.5c6-3.3,15.1-1.6,18.1,0.8c3,2.4,3.5,11.9,0,13.7
			C923.6,162.2,907.4,159.4,907.4,159.4z"/>
		<path class="st16" d="M911.9,153.3c0,0-2.1-5,0.8-6.6c2.9-1.6,7.3-0.8,8.7,0.4s1.7,5.7,0,6.6C919.7,154.6,911.9,153.3,911.9,153.3
			z"/>
		<path class="st17" d="M918.3,174c0,4.4-3.6,8-8.1,8c-4.5,0-6.4-3.6-6.4-8s3.4-7.8,7.9-7.8C916.3,166.2,918.3,169.7,918.3,174z"/>
		<path class="st15" d="M821.4,261.4c0,0-10.6,3.4-13.3-2.9c-2.7-6.2-0.2-15.2,2.5-17.9c2.6-2.7,12.1-2.4,13.6,1.3
			C825.6,245.6,821.4,261.4,821.4,261.4z"/>
		<path class="st16" d="M815.7,256.5c0,0-5.1,1.6-6.5-1.4c-1.3-3-0.1-7.3,1.2-8.7c1.3-1.3,5.9-1.1,6.6,0.6
			C817.8,248.8,815.7,256.5,815.7,256.5z"/>
		<g>
			<path class="st18" d="M936.1,172c-2.1-4.1-5.1-7-8.5-9.1c3.4,9.1,4.7,33.6-19.4,64.7c-25.8,33.1-64.6,39.4-77.1,38.7
				c-3.3-0.2-6.2-1.2-8.6-2.7c2.5,5.6,8.3,12.9,17.8,13.4c12.5,0.7,51.4-5.5,77.1-38.7C943.2,205.1,940,179.5,936.1,172z"/>
			<path class="st19" d="M908.2,227.6c24.2-31.1,22.9-55.6,19.4-64.7c-4.5-2.7-9.5-3.9-13.8-3.9c-15.7,0-22.6,17.5-23,25.9
				c-0.4,8.5-3.9,15.6-11.7,27.4c-7.8,11.8-35.9,19.1-40.5,19.6c-5.8,0.6-9.9,2.1-12.8,6.3c-5,7.5-5.8,16.2-4.8,21.2
				c0.2,1.1,0.7,2.5,1.4,4.1c2.4,1.5,5.3,2.5,8.6,2.7C843.6,267,882.4,260.7,908.2,227.6z"/>
		</g>
		<circle class="st17" cx="833.3" cy="247" r="5.8"/>
	</g>
	<g>
		<path class="st20" d="M684.6,204.6c0,0,25.3,24.5,5.9,49.7c0,0-4.2,6.3-10.6,4.1c-6.2-2.2-7.3-10.6-2.9-16.2
			C681,237.1,685,226.6,684.6,204.6z"/>
		<path class="st20" d="M684.6,204.6c0,0,33.6,9.9,44.3-17.6c0,0,4.7-9.4,0.4-15.5c-4-5.7-12.8-3.5-14.6,3.3
			C712.8,182.1,706.1,193.4,684.6,204.6z"/>
		<path class="st20" d="M688.8,254c0,0-0.2,0.2-0.4,0.5c0.7,0.5,1.5,0.9,2.3,1.2c7.7,3.2,11.5-2.1,11.5-2.1
			c18-20.7-15.2-48.2-15.2-48.2c0.3,1.7,0.6,3.2,0.9,4.8C694.1,219.1,702.4,236.4,688.8,254z"/>
		<path class="st21" d="M728.9,187c-8.2,21.2-30.1,20.1-39.7,18.6c-0.2,0.1-0.4,0.1-0.5,0.2c0,0,40.3,15.1,47.9-9.2
			c0,0,3.8-8.1-2.1-14.7c-1-1.1-2.2-2-3.4-2.7C730.7,183.4,728.9,187,728.9,187z"/>
		<path class="st22" d="M734.3,231.1c3.2-10.2-8.2-18.8-8.2-18.8c-2.7-1.2-5.5-2.2-8.3-3.1c-11.4,1.5-25.3-2.4-31.6-4.5
			c-0.8,0-1.5,0-2,0c3.9,3.4,14.7,13.3,19.9,24.6c2.7,2.4,5.6,4.6,8.6,6.4C728.7,245.4,734.3,231.1,734.3,231.1z"/>
		<path class="st21" d="M684.6,204.6c0,0,25.3,24.5,5.9,49.7c0,0-4.2,6.3-10.6,4.1c-6.2-2.2-7.3-10.6-2.9-16.2
			C681,237.1,685,226.6,684.6,204.6z"/>
		<g>
			<path class="st23" d="M687.7,205.5c-1.5-0.3-2.3-0.6-2.3-0.6s1,0.9,2.3,2.6C687.7,206.8,687.7,206.2,687.7,205.5z"/>
			<path class="st24" d="M676.3,224.9c3,0.2,5.8-0.6,8.2-1.9c0.7-5,1-10.9,0.9-18.1c7.1-3.7,12.5-7.4,16.7-10.9
				c0.2-3.4-0.3-6.9-2.5-9.9c-6.8-9.7-87.4-38.2-113.4-40.5c-2.4-0.2-3.7,2-2.3,4C599.2,168.7,664.5,224,676.3,224.9z"/>
		</g>
		<g>
			<path class="st25" d="M610.6,157.6c0.3-1.8,0.8-3.6,1.5-5.4c0.5-1.3-0.1-2.7-1.4-3.2c-1.3-0.5-2.7,0.1-3.2,1.4
				c-0.8,2-1.4,4.1-1.7,6.2c-0.1,0.4,0,0.7,0,1.1c0.2,0.9,1,1.6,1.9,1.8C609.1,159.8,610.4,158.9,610.6,157.6z"/>
			<path class="st25" d="M675.6,218.4c0.5-5.3,2.6-10.7,6.2-16c0.8-1.1,0.5-2.6-0.7-3.4c-1.1-0.8-2.6-0.5-3.4,0.7
				c-4.1,6-6.4,12.2-7,18.3c0,0.3,0,0.6,0.1,0.9c0.3,1,1.1,1.7,2.1,1.8C674.3,220.7,675.5,219.7,675.6,218.4z"/>
			<g>
				<path class="st25" d="M683.6,174.4c0,1-0.6,1.9-1.5,2.3c-3.7,1.5-8.2,4.8-9.7,9c-0.5,1.3-1.9,1.9-3.1,1.5
					c-0.8-0.3-1.3-0.9-1.5-1.7c-0.1-0.5-0.1-1,0.1-1.5c2-5.6,7.4-9.6,11.7-11.6"/>
				<path class="st25" d="M667.8,184.1c-0.2,0.5-0.2,1-0.1,1.5c0.2,0.7,0.8,1.4,1.5,1.7c1.3,0.5,2.7-0.2,3.1-1.5
					c1.5-4.2,6-7.5,9.7-9c1-0.4,1.5-1.3,1.5-2.3c-1.3-0.6-2.7-1.2-4.2-1.9C675.2,174.4,669.8,178.4,667.8,184.1z"/>
			</g>
			<g>
				<path class="st25" d="M644.5,204.5c-0.5-4.7,0.3-11.2,4-15.7c0.9-1,2.4-1.2,3.5-0.3c1,0.9,1.2,2.4,0.3,3.5
					c-2.8,3.4-3.5,9-2.8,13c0.2,1.1-0.4,2.1-1.3,2.5"/>
				<path class="st25" d="M649.5,204.8c-0.6-4,0-9.5,2.8-13c0.9-1,0.7-2.6-0.3-3.5c-1-0.9-2.6-0.7-3.5,0.3c-3.8,4.6-4.5,11.1-4,15.7
					c1.2,1,2.5,1.9,3.7,2.9C649.1,206.9,649.6,205.9,649.5,204.8z"/>
			</g>
			<g>
				<path class="st25" d="M653.7,162.3c0,1-0.5,2-1.5,2.4c-2.4,0.9-5.1,3-6.1,5.6c-0.5,1.3-1.9,1.9-3.1,1.5
					c-0.8-0.3-1.3-0.9-1.5-1.7c-0.1-0.5-0.1-1,0.1-1.5c1.4-3.7,4.7-6.5,7.7-7.9"/>
				<path class="st25" d="M641.5,168.6c-0.2,0.5-0.2,1-0.1,1.5c0.2,0.7,0.8,1.4,1.5,1.7c1.3,0.5,2.7-0.2,3.1-1.5
					c0.9-2.6,3.7-4.7,6.1-5.6c1-0.4,1.6-1.4,1.5-2.4c-1.5-0.6-3-1.1-4.6-1.6C646.2,162.2,642.9,164.9,641.5,168.6z"/>
			</g>
			<g>
				<path class="st25" d="M616.5,180.8c-0.5-3.3,0-8.2,2.8-11.7c0.9-1,2.4-1.2,3.5-0.3c1,0.9,1.2,2.4,0.3,3.5
					c-1.7,2.1-2.1,5.6-1.7,8.1c0.2,1.3-0.7,2.6-2,2.8c-0.1,0-0.1,0-0.2,0"/>
				<path class="st25" d="M621.4,180.4c-0.4-2.5,0-6,1.7-8.1c0.9-1,0.7-2.6-0.3-3.5c-1-0.9-2.6-0.7-3.5,0.3
					c-2.8,3.4-3.3,8.3-2.8,11.7c0.9,0.8,1.7,1.6,2.6,2.3c0.1,0,0.1,0,0.2,0C620.7,183,621.6,181.7,621.4,180.4z"/>
			</g>
		</g>
	</g>
	<g>
		<g>
			<path class="st26" d="M667.6,441.6c3.7-20-5.3-52.9-16.4-80.5c-11-27.6-47.7-48.7-47.9-48.8c-16.7-5.5-30.4-3.2-40.2,5.4
				c-15.1,13.2-26.5,35.7-18.3,67.8s30.2,59.6,44.5,74.1c7.5,7.6,19.6,16.4,32.3,21.7c5.4,1.4,13.9,2.6,22.8-0.3
				C659.1,476.2,663.9,461.6,667.6,441.6z"/>
			<path class="st27" d="M603.3,312.2c0.2,0.1,36.9,21.3,47.9,48.8c11,27.6,20.1,60.5,16.4,80.5c-3.7,20-8.5,34.6-23.3,39.4
				c-8.9,2.9-17.4,1.7-22.8,0.3c11.6,4.8,23.7,6.7,33.3,1.8c9.6-4.9,28.7-25.3,22.6-56.6s-14.5-76.1-44.6-98.2
				C622.2,320.5,612.4,315.2,603.3,312.2z"/>
		</g>
		<circle class="st27" cx="591.4" cy="352" r="6.3"/>
		<circle class="st27" cx="618.7" cy="350.1" r="3.7"/>
		<circle class="st27" cx="612" cy="420.6" r="3.9"/>
		<circle class="st27" cx="600.7" cy="437.7" r="4.8"/>
		<circle class="st27" cx="622.6" cy="445.3" r="3.3"/>
	</g>
	<g>
		<path class="st28" d="M543.5,312.4c-5.5,4.6-11.5,8-17.9,10.3c-22.6,8.3-49,2.7-67.3-15.4c-1.5-1.5-3-3.1-4.3-4.7
			c-23-27.5-20.1-67.7,6.4-89.8c8.8-7.4,18.3-11.1,27.8-11.7c7.8-0.5,15.7,1,23.3,4.3c0.4,0.2,0.7,0.3,1.1,0.5
			c10.6,4.8,20.7,12.8,29.4,23.3c1.4,1.7,2.7,3.3,4,5.1c6.4,8.7,11,17.9,13.5,27.1c0.1,0.4,0.2,0.7,0.3,1.1
			C564.2,280.7,559.8,298.7,543.5,312.4z"/>
		<path class="st29" d="M543.5,312.4c-5.5,4.6-11.5,8-17.9,10.3c-18.8,2.1-38.5-4.3-53-18.7c-1.5-1.5-3-3.1-4.3-4.7
			c-23-27.5-20.1-67.7,6.4-89.8c4.4-3.7,8.9-6.4,13.5-8.3c7.8-0.5,15.7,1,23.3,4.3c11,4.7,21.5,13,30.5,23.8c1.4,1.7,2.7,3.3,4,5.1
			c6.7,9.1,11.4,18.7,13.8,28.2C564.2,280.7,559.8,298.7,543.5,312.4z"/>
		<path class="st30" d="M544,276.4l0.7-19.5c0.1-2.5,2.9-3.9,5-2.5l9.1,6.4c0.2,0.2,0.5,0,0.4-0.3c-2.4-8.9-6.7-18-12.9-26.4
			l12.9-10.7c2.8-2.3,3.2-6.6,0.8-9.4l0,0c-2.3-2.8-6.6-3.2-9.4-0.8l-12.9,10.7c-7.2-7.6-15.4-13.4-23.8-17.4
			c-0.5-0.2-1,0.3-0.8,0.8l4.2,8.4c1.2,2.3-0.9,5-3.4,4.5l-17.7-3.2c-1.6-0.3-2.5,1.9-1.1,2.7l24.3,14.9c1.5,0.9,1.9,2.9,0.9,4.4
			L510,253.8c-0.9,1.3,0.5,2.8,1.8,2.2l16.1-7.7c1.7-0.8,3.7,0,4.3,1.8l8.8,26.9C541.6,278.4,544,278.1,544,276.4z"/>
	</g>
	<g>
		
			<image style="overflow:visible;opacity:0.3;" width="57" height="174" xlink:href="34F4297491C76212.png"  transform="matrix(1 0 0 1 1092 20)">
		</image>
		<g>
			<g>
				<g>
					<rect x="1131" y="114.7" class="st37" width="2.9" height="55"/>
					<rect x="1133.9" y="114.7" class="st37" width="2.9" height="55"/>
				</g>
				<g>
					<path class="st37" d="M1093.3,168.3c0,12,9.7,21.7,21.7,21.7v-21.7H1093.3z"/>
					<path class="st37" d="M1115.1,168.3V190c12,0,21.7-9.7,21.7-21.7H1115.1z"/>
				</g>
				<g>
					<path class="st37" d="M1143.7,32.1L1143.7,32.1c-0.4-5.7-5.1-10.1-10.9-10.1v4.3c3.6,0,6.5,2.9,6.5,6.5s-2.9,6.5-6.5,6.5v78.2
						h9.4l1.4-84.4c0-0.1,0-0.2,0-0.4c0-0.1,0-0.1,0-0.2L1143.7,32.1z"/>
					<path class="st37" d="M1126.3,32.9c0-3.6,2.9-6.5,6.5-6.5V22c-5.8,0-10.5,4.5-10.8,10.1h0l0,0.5c0,0.1,0,0.1,0,0.2
						c0,0.1,0,0.2,0,0.4l1.4,84.4h9.4V39.4C1129.2,39.4,1126.3,36.5,1126.3,32.9z"/>
				</g>
			</g>
		</g>
	</g>
	<g>
		
			<image style="overflow:visible;opacity:0.3;" width="56" height="175" xlink:href="34F4297491C76211.png"  transform="matrix(1 0 0 1 1161 20)">
		</image>
		<g>
			<g>
				<g>
					<rect x="1184" y="88.7" class="st37" width="2.9" height="55"/>
					<rect x="1186.9" y="88.7" class="st37" width="2.9" height="55"/>
				</g>
				<g>
					<path class="st37" d="M1197.3,32.1L1197.3,32.1c-0.4-5.7-5.1-10.1-10.9-10.1v4.3c3.6,0,6.5,2.9,6.5,6.5s-2.9,6.5-6.5,6.5v78.2
						h9.4l1.4-84.4c0-0.1,0-0.2,0-0.4c0-0.1,0-0.1,0-0.2L1197.3,32.1z"/>
					<path class="st37" d="M1179.9,32.9c0-3.6,2.9-6.5,6.5-6.5V22c-5.8,0-10.5,4.5-10.8,10.1h0l0,0.5c0,0.1,0,0.1,0,0.2
						c0,0.1,0,0.2,0,0.4l1.4,84.4h9.4V39.4C1182.8,39.4,1179.9,36.5,1179.9,32.9z"/>
				</g>
				<g>
					<path class="st37" d="M1177.2,171.5c-0.9,0.4-1.3,1.4-0.9,2.3c0.4,0.9,1.4,1.3,2.3,0.9c0.9-0.4,1.3-1.4,0.9-2.3
						C1179.1,171.5,1178.1,171.1,1177.2,171.5z"/>
					<path class="st37" d="M1172.8,175.5c-0.5-1.3-2-2-3.3-1.5s-2,2-1.5,3.3s2,2,3.3,1.5C1172.6,178.3,1173.3,176.8,1172.8,175.5z"
						/>
					<path class="st37" d="M1170.4,169.3c0.1-1.4-1.1-2.6-2.5-2.7c-1.4-0.1-2.6,1.1-2.7,2.5c-0.1,1.4,1.1,2.6,2.5,2.7
						S1170.4,170.7,1170.4,169.3z"/>
					<path class="st37" d="M1181.5,156.9c0.9-0.3,1.4-1.3,1-2.2c-0.3-0.9-1.3-1.4-2.2-1c-0.9,0.3-1.4,1.3-1,2.2
						C1179.6,156.7,1180.6,157.2,1181.5,156.9z"/>
					<path class="st37" d="M1167.2,164c1.3,0.6,2.8,0,3.5-1.3c0.6-1.3,0-2.8-1.3-3.5c-1.3-0.6-2.8,0-3.5,1.3
						C1165.3,161.8,1165.9,163.3,1167.2,164z"/>
					<path class="st37" d="M1184,160.1c-0.3-0.6-1.1-0.8-1.7-0.4s-0.8,1.1-0.4,1.7s1.1,0.8,1.7,0.4
						C1184.2,161.4,1184.4,160.7,1184,160.1z"/>
					<path class="st37" d="M1180.7,166.8c0.7,0.2,1.3-0.2,1.5-0.9s-0.2-1.3-0.9-1.5s-1.3,0.2-1.5,0.9
						C1179.6,166,1180,166.6,1180.7,166.8z"/>
					<path class="st37" d="M1183.4,182.9c-1.3-0.6-2.8,0-3.4,1.3c-0.6,1.3,0,2.8,1.3,3.4c1.3,0.6,2.8,0,3.4-1.3
						C1185.3,185,1184.7,183.5,1183.4,182.9z"/>
					<path class="st37" d="M1182.3,169.5c-0.6,0.3-0.8,1.1-0.4,1.7c0.3,0.6,1.1,0.8,1.7,0.4c0.6-0.3,0.8-1.1,0.4-1.7
						S1182.9,169.1,1182.3,169.5z"/>
					<path class="st37" d="M1186.7,158.4c-0.1,0.4,0,0.8,0.3,1.1v-1.6C1186.9,158,1186.7,158.2,1186.7,158.4z"/>
					<path class="st37" d="M1173.4,156.7c1.1-1,1.1-2.6,0.2-3.7s-2.6-1.1-3.7-0.2c-1.1,1-1.1,2.6-0.2,3.7
						C1170.7,157.6,1172.3,157.6,1173.4,156.7z"/>
					<path class="st37" d="M1184.6,175.9c-0.8-0.5-1.9-0.3-2.4,0.5c-0.5,0.8-0.3,1.9,0.5,2.4c0.8,0.5,1.9,0.3,2.4-0.5
						C1185.6,177.5,1185.4,176.5,1184.6,175.9z"/>
					<path class="st37" d="M1186.7,172.3c-0.1,0.4,0,0.8,0.3,1.1v-1.6C1186.9,171.9,1186.7,172.1,1186.7,172.3z"/>
					<path class="st37" d="M1187.4,154.8c0.9,0.2,1.9-0.3,2.1-1.3c0.2-0.9-0.3-1.9-1.3-2.1c-0.4-0.1-0.9,0-1.2,0.2v3.1
						C1187.1,154.7,1187.3,154.8,1187.4,154.8z"/>
					<path class="st37" d="M1187.6,159.9c0.7,0.2,1.3-0.2,1.5-0.9c0.2-0.7-0.2-1.3-0.9-1.5c-0.4-0.1-0.9,0.1-1.2,0.4v1.6
						C1187.2,159.7,1187.3,159.8,1187.6,159.9z"/>
					<path class="st37" d="M1187.6,173.7c0.7,0.2,1.3-0.2,1.5-0.9c0.2-0.7-0.2-1.3-0.9-1.5c-0.4-0.1-0.9,0.1-1.2,0.4v1.6
						C1187.2,173.5,1187.3,173.7,1187.6,173.7z"/>
					<path class="st37" d="M1175.7,164.7c-0.9-0.2-1.8,0.4-2,1.4c-0.2,0.9,0.4,1.8,1.4,2c0.9,0.2,1.8-0.4,2-1.4
						C1177.3,165.7,1176.7,164.8,1175.7,164.7z"/>
					<path class="st37" d="M1178.3,158.1c-0.7-0.7-1.8-0.6-2.4,0c-0.7,0.7-0.6,1.8,0,2.4c0.7,0.7,1.8,0.6,2.4,0
						C1179,159.9,1178.9,158.8,1178.3,158.1z"/>
					<path class="st37" d="M1178.2,152.2c1.4-0.5,2.1-2,1.6-3.3s-2-2.1-3.3-1.6c-1.4,0.5-2.1,2-1.6,3.3
						C1175.4,151.9,1176.9,152.6,1178.2,152.2z"/>
					<path class="st37" d="M1186.1,152.7c-0.2,0.8,0.2,1.6,0.9,1.9v-3.1C1186.6,151.8,1186.2,152.2,1186.1,152.7z"/>
					<path class="st37" d="M1173.7,180.1c-1,1-1.1,2.6-0.1,3.7c1,1,2.6,1.1,3.7,0.1c1-1,1.1-2.6,0.1-3.7S1174.7,179.2,1173.7,180.1z
						"/>
					<path class="st37" d="M1190,183c-1.4,0-2.6,1.1-2.7,2.5c0,1.4,1.1,2.6,2.5,2.7c1.4,0,2.6-1.1,2.7-2.5
						C1192.6,184.3,1191.5,183.1,1190,183z"/>
					<path class="st37" d="M1196,165.9c0.2-0.7-0.2-1.3-0.9-1.5c-0.7-0.2-1.3,0.2-1.5,0.9c-0.2,0.7,0.2,1.3,0.9,1.5
						S1195.8,166.6,1196,165.9z"/>
					<path class="st37" d="M1192.1,169.5c-0.6,0.3-0.8,1.1-0.4,1.7c0.3,0.6,1.1,0.8,1.7,0.4c0.6-0.3,0.8-1.1,0.4-1.7
						C1193.5,169.3,1192.7,169.1,1192.1,169.5z"/>
					<path class="st37" d="M1190.8,179.5c1,0,1.7-0.8,1.7-1.7c0-1-0.8-1.7-1.7-1.7c-1,0-1.7,0.8-1.7,1.7
						C1189,178.7,1189.8,179.5,1190.8,179.5z"/>
					<path class="st37" d="M1183.5,144.8c-1.4,0-2.6,1.2-2.6,2.6c0,1.4,1.2,2.6,2.6,2.6c1.4,0,2.6-1.2,2.6-2.6
						C1186.1,146,1185,144.8,1183.5,144.8z"/>
					<path class="st37" d="M1206.9,168.5c-1.3-0.6-2.8,0-3.4,1.3c-0.6,1.3,0,2.8,1.3,3.4c1.3,0.6,2.8,0,3.4-1.3
						C1208.8,170.6,1208.2,169.1,1206.9,168.5z"/>
					<path class="st37" d="M1193.6,148.6c0.6-1.3-0.1-2.8-1.4-3.4c-1.3-0.6-2.8,0.1-3.4,1.4c-0.6,1.3,0.1,2.8,1.4,3.4
						C1191.5,150.5,1193,149.9,1193.6,148.6z"/>
					<path class="st37" d="M1200.9,176c-1,1-1.1,2.6-0.1,3.7c1,1,2.6,1.1,3.7,0.1s1.1-2.6,0.1-3.7S1201.9,175,1200.9,176z"/>
					<path class="st37" d="M1196.2,180.6c-1.3,0.5-2,2-1.5,3.4c0.5,1.3,2,2,3.4,1.5c1.3-0.5,2-2,1.5-3.4
						C1199,180.7,1197.5,180.1,1196.2,180.6z"/>
					<path class="st37" d="M1199.6,162.3c0.9-0.2,1.6-1.1,1.4-2c-0.2-0.9-1.1-1.6-2-1.4c-0.9,0.2-1.6,1.1-1.4,2
						C1197.8,161.9,1198.7,162.5,1199.6,162.3z"/>
					<path class="st37" d="M1196,172.7c-0.8,0.5-1,1.6-0.5,2.4c0.5,0.8,1.6,1,2.4,0.5c0.8-0.5,1-1.6,0.5-2.4
						S1196.9,172.2,1196,172.7z"/>
					<path class="st37" d="M1204.4,158.6c1.3-0.5,2-2,1.4-3.4s-2-2-3.4-1.4c-1.3,0.5-2,2-1.4,3.4
						C1201.5,158.5,1203,159.1,1204.4,158.6z"/>
					<path class="st37" d="M1203.5,163.2c0,1.4,1.1,2.6,2.6,2.6c1.4,0,2.6-1.1,2.6-2.6c0-1.4-1.1-2.6-2.6-2.6
						C1204.7,160.7,1203.5,161.8,1203.5,163.2z"/>
					<path class="st37" d="M1199.5,169.3c0.9,0.4,1.9,0,2.3-0.9c0.4-0.9,0-1.9-0.9-2.3c-0.9-0.4-1.9,0-2.3,0.9
						S1198.6,168.9,1199.5,169.3z"/>
					<path class="st37" d="M1193.4,156.3c0.7,0.7,1.7,0.7,2.4,0.1c0.7-0.7,0.7-1.7,0.1-2.4c-0.7-0.7-1.7-0.7-2.4-0.1
						C1192.8,154.5,1192.8,155.6,1193.4,156.3z"/>
					<path class="st37" d="M1200,152.5c1-1,1-2.7,0-3.7c-1-1-2.7-1-3.7,0c-1,1-1,2.7,0,3.7C1197.3,153.5,1198.9,153.5,1200,152.5z"
						/>
					<path class="st37" d="M1192.1,159.7c-0.6,0.3-0.8,1.1-0.4,1.7s1.1,0.8,1.7,0.4s0.8-1.1,0.4-1.7S1192.7,159.3,1192.1,159.7z"/>
					<path class="st37" d="M1186.7,172.3c0.1-0.2,0.2-0.4,0.3-0.5v-12.2c-0.3-0.3-0.4-0.7-0.3-1.1c0.1-0.2,0.2-0.4,0.3-0.5v-3.2
						c-0.7-0.4-1.1-1.2-0.9-1.9c0.1-0.5,0.5-0.9,0.9-1.1V142c-13.5,0-24.5,11-24.5,24.5c0,13.5,11,24.5,24.5,24.5v-17.6
						C1186.7,173.1,1186.6,172.7,1186.7,172.3z M1176.5,147.3c1.4-0.5,2.8,0.2,3.3,1.6s-0.2,2.8-1.6,3.3c-1.4,0.5-2.8-0.2-3.3-1.6
						C1174.4,149.2,1175.1,147.8,1176.5,147.3z M1175.9,160.6c-0.7-0.7-0.7-1.8,0-2.4c0.7-0.7,1.8-0.7,2.4,0c0.7,0.7,0.7,1.8,0,2.4
						C1177.6,161.3,1176.5,161.3,1175.9,160.6z M1177.1,166.7c-0.2,0.9-1.1,1.6-2,1.4c-0.9-0.2-1.6-1.1-1.4-2c0.2-0.9,1.1-1.6,2-1.4
						S1177.3,165.7,1177.1,166.7z M1169.9,152.8c1.1-1,2.7-0.9,3.7,0.2s0.9,2.7-0.2,3.7c-1.1,1-2.7,0.9-3.7-0.2
						C1168.7,155.4,1168.8,153.8,1169.9,152.8z M1165.9,160.5c0.6-1.3,2.2-1.9,3.5-1.3c1.3,0.6,1.9,2.2,1.3,3.5
						c-0.6,1.3-2.2,1.9-3.5,1.3C1165.9,163.3,1165.3,161.8,1165.9,160.5z M1165.2,169.1c0.1-1.4,1.3-2.5,2.7-2.5
						c1.4,0.1,2.5,1.3,2.5,2.7c-0.1,1.4-1.3,2.5-2.7,2.5S1165.2,170.5,1165.2,169.1z M1171.3,178.8c-1.3,0.5-2.8-0.2-3.3-1.5
						s0.2-2.8,1.5-3.3s2.8,0.2,3.3,1.5C1173.3,176.8,1172.6,178.3,1171.3,178.8z M1177.2,183.9c-1,1-2.7,0.9-3.7-0.1
						c-1-1-0.9-2.7,0.1-3.7c1-1,2.7-0.9,3.7,0.1S1178.3,183,1177.2,183.9z M1178.5,174.7c-0.9,0.4-1.9,0-2.3-0.9
						c-0.4-0.9,0-1.9,0.9-2.3c0.9-0.4,1.9,0,2.3,0.9C1179.8,173.3,1179.4,174.3,1178.5,174.7z M1179.3,155.8c-0.3-0.9,0.1-1.9,1-2.2
						c0.9-0.3,1.9,0.1,2.2,1c0.3,0.9-0.1,1.9-1,2.2C1180.6,157.2,1179.6,156.7,1179.3,155.8z M1183.6,161.8
						c-0.6,0.3-1.3,0.2-1.7-0.4s-0.2-1.3,0.4-1.7s1.3-0.2,1.7,0.4C1184.4,160.7,1184.2,161.4,1183.6,161.8z M1183.6,171.6
						c-0.6,0.3-1.3,0.2-1.7-0.4c-0.3-0.6-0.2-1.3,0.4-1.7s1.3-0.2,1.7,0.4S1184.2,171.2,1183.6,171.6z M1179.8,165.3
						c0.2-0.7,0.8-1,1.5-0.9s1,0.8,0.9,1.5s-0.8,1-1.5,0.9S1179.6,166,1179.8,165.3z M1184.7,186.4c-0.6,1.3-2.1,1.9-3.4,1.3
						c-1.3-0.6-1.9-2.1-1.3-3.4c0.6-1.3,2.1-1.9,3.4-1.3S1185.3,185,1184.7,186.4z M1185.1,178.3c-0.5,0.8-1.6,1-2.4,0.5
						c-0.8-0.5-1-1.6-0.5-2.4c0.5-0.8,1.6-1,2.4-0.5C1185.4,176.5,1185.6,177.5,1185.1,178.3z M1183.5,150c-1.4,0-2.6-1.2-2.6-2.6
						c0-1.4,1.2-2.6,2.6-2.6c1.4,0,2.6,1.2,2.6,2.6C1186.1,148.9,1185,150,1183.5,150z"/>
					<path class="st37" d="M1187,142v9.6c0.4-0.2,0.8-0.3,1.2-0.2c0.9,0.2,1.5,1.2,1.3,2.1c-0.2,0.9-1.2,1.5-2.1,1.3
						c-0.1,0-0.3-0.1-0.4-0.2v3.2c0.3-0.3,0.7-0.5,1.2-0.4c0.7,0.2,1,0.8,0.9,1.5c-0.2,0.7-0.8,1-1.5,0.9c-0.2-0.1-0.4-0.2-0.6-0.4
						v12.2c0.3-0.3,0.7-0.5,1.2-0.4c0.7,0.2,1,0.8,0.9,1.5c-0.2,0.7-0.8,1-1.5,0.9c-0.2-0.1-0.4-0.2-0.6-0.4V191
						c13.5,0,24.5-11,24.5-24.5C1211.5,153,1200.5,142,1187,142z M1208.7,163.3c0,1.4-1.2,2.6-2.6,2.6c-1.4,0-2.6-1.2-2.6-2.6
						c0-1.4,1.2-2.6,2.6-2.6C1207.6,160.7,1208.7,161.9,1208.7,163.3z M1202.4,153.8c1.3-0.5,2.8,0.1,3.4,1.4s-0.1,2.8-1.4,3.4
						c-1.3,0.5-2.8-0.1-3.4-1.4C1200.4,155.8,1201.1,154.3,1202.4,153.8z M1198.4,173.2c0.5,0.8,0.3,1.9-0.5,2.4
						c-0.8,0.5-1.9,0.3-2.4-0.5c-0.5-0.8-0.3-1.9,0.5-2.4C1196.9,172.2,1197.9,172.4,1198.4,173.2z M1199,158.9
						c0.9-0.2,1.8,0.5,2,1.4c0.2,0.9-0.5,1.8-1.4,2c-0.9,0.2-1.8-0.5-2-1.4C1197.5,160,1198.1,159.1,1199,158.9z M1198.6,167
						c0.4-0.9,1.4-1.3,2.3-0.9c0.9,0.4,1.3,1.4,0.9,2.3c-0.4,0.9-1.4,1.3-2.3,0.9S1198.2,167.9,1198.6,167z M1196.3,148.8
						c1-1,2.7-1,3.7,0c1,1,1,2.7,0,3.7c-1,1-2.7,1-3.7,0C1195.3,151.4,1195.3,149.8,1196.3,148.8z M1195.9,154
						c0.7,0.7,0.6,1.8-0.1,2.4c-0.7,0.7-1.8,0.6-2.4-0.1c-0.7-0.7-0.6-1.8,0.1-2.4C1194.2,153.2,1195.3,153.3,1195.9,154z
						 M1193.4,161.8c-0.6,0.3-1.3,0.2-1.7-0.4s-0.2-1.3,0.4-1.7c0.6-0.3,1.3-0.2,1.7,0.4S1194,161.4,1193.4,161.8z M1188.8,146.6
						c0.6-1.3,2.1-1.9,3.4-1.4c1.3,0.6,1.9,2.1,1.4,3.4c-0.6,1.3-2.1,1.9-3.4,1.4C1188.8,149.4,1188.2,147.9,1188.8,146.6z
						 M1190.8,176c1,0,1.7,0.8,1.7,1.7c0,1-0.8,1.7-1.7,1.7c-1,0-1.7-0.8-1.7-1.7C1189.1,176.8,1189.8,176,1190.8,176z
						 M1189.9,188.2c-1.4,0-2.6-1.2-2.5-2.7c0-1.4,1.2-2.6,2.7-2.5c1.4,0,2.6,1.2,2.5,2.7C1192.5,187.1,1191.3,188.3,1189.9,188.2z
						 M1193.4,171.6c-0.6,0.3-1.3,0.2-1.7-0.4c-0.3-0.6-0.2-1.3,0.4-1.7c0.6-0.3,1.3-0.2,1.7,0.4
						C1194.2,170.5,1194,171.2,1193.4,171.6z M1193.6,165.3c0.2-0.7,0.8-1,1.5-0.9c0.7,0.2,1,0.8,0.9,1.5c-0.2,0.7-0.8,1-1.5,0.9
						S1193.5,166,1193.6,165.3z M1198.1,185.4c-1.3,0.5-2.8-0.1-3.4-1.5c-0.5-1.3,0.1-2.8,1.5-3.4c1.3-0.5,2.8,0.1,3.4,1.5
						C1200.1,183.4,1199.4,184.9,1198.1,185.4z M1204.5,179.7c-1,1-2.7,1-3.7-0.1c-1-1-1-2.7,0.1-3.7c1-1,2.7-1,3.7,0.1
						S1205.5,178.7,1204.5,179.7z M1208.2,171.9c-0.6,1.3-2.1,1.9-3.4,1.3c-1.3-0.6-1.9-2.1-1.3-3.4c0.6-1.3,2.1-1.9,3.4-1.3
						S1208.8,170.6,1208.2,171.9z"/>
				</g>
			</g>
		</g>
	</g>
	<g>
		<g>
			
				<image style="overflow:visible;opacity:0.3;" width="29" height="136" xlink:href="34F4297491C7622C.png"  transform="matrix(1 0 0 1 1231 20)">
			</image>
			<g>
				<g>
					<g>
						<rect x="1241" y="96.7" class="st37" width="2.9" height="55"/>
						<rect x="1243.9" y="96.7" class="st37" width="2.9" height="55"/>
					</g>
					<g>
						<path class="st37" d="M1254.3,32.1L1254.3,32.1c-0.4-5.7-5.1-10.1-10.9-10.1v4.3c3.6,0,6.5,2.9,6.5,6.5s-2.9,6.5-6.5,6.5v78.2
							h9.4l1.4-84.4c0-0.1,0-0.2,0-0.4c0-0.1,0-0.1,0-0.2L1254.3,32.1z"/>
						<path class="st37" d="M1236.9,32.9c0-3.6,2.9-6.5,6.5-6.5V22c-5.8,0-10.5,4.5-10.8,10.1h0l0,0.5c0,0.1,0,0.1,0,0.2
							c0,0.1,0,0.2,0,0.4l1.4,84.4h9.4V39.4C1239.8,39.4,1236.9,36.5,1236.9,32.9z"/>
					</g>
				</g>
			</g>
		</g>
		<g>
			
				<image style="overflow:visible;opacity:0.19;" width="40" height="51" xlink:href="34F4297491C7622D.png"  transform="matrix(1 0 0 1 1226 144)">
			</image>
			<g>
				<g>
					<path class="st37" d="M1233.9,163.6c-0.7,0-1.3,0.6-1.3,1.3v22.6c0,0.7,0.6,1.3,1.3,1.3s1.3-0.6,1.3-1.3v-22.6
						C1235.2,164.2,1234.6,163.6,1233.9,163.6z"/>
					<path class="st37" d="M1245.2,187.5v-22.6c0-0.7-0.6-1.3-1.3-1.3v25.2C1244.6,188.8,1245.2,188.2,1245.2,187.5z"/>
					<path class="st37" d="M1242.5,164.9v22.6c0,0.7,0.6,1.3,1.3,1.3v-25.2C1243.1,163.6,1242.5,164.2,1242.5,164.9z"/>
					<path class="st37" d="M1238.9,163.6c-0.7,0-1.3,0.6-1.3,1.3v22.6c0,0.7,0.6,1.3,1.3,1.3s1.3-0.6,1.3-1.3v-22.6
						C1240.2,164.2,1239.6,163.6,1238.9,163.6z"/>
					<path class="st37" d="M1254.8,163.6c-0.7,0-1.3,0.6-1.3,1.3v22.6c0,0.7,0.6,1.3,1.3,1.3s1.3-0.6,1.3-1.3v-22.6
						C1256.2,164.2,1255.6,163.6,1254.8,163.6z"/>
					<path class="st37" d="M1249.9,163.6c-0.7,0-1.3,0.6-1.3,1.3v22.6c0,0.7,0.6,1.3,1.3,1.3s1.3-0.6,1.3-1.3v-22.6
						C1251.2,164.2,1250.6,163.6,1249.9,163.6z"/>
					<path class="st37" d="M1258.7,159.9l-14.9-14.9v16.6c0.7,0,1.3,0.6,1.3,1.3v22.6c0,0.7-0.6,1.3-1.3,1.3v2.7h13.8
						c1.6,0,2.8-1.3,2.8-2.8v-22.6C1260.5,162.5,1259.9,161,1258.7,159.9z M1251.2,185.5c0,0.7-0.6,1.3-1.3,1.3s-1.3-0.6-1.3-1.3
						v-22.6c0-0.7,0.6-1.3,1.3-1.3s1.3,0.6,1.3,1.3V185.5z M1256.2,185.5c0,0.7-0.6,1.3-1.3,1.3s-1.3-0.6-1.3-1.3v-22.6
						c0-0.7,0.6-1.3,1.3-1.3s1.3,0.6,1.3,1.3V185.5z"/>
					<path class="st37" d="M1242.5,185.5v-22.6c0-0.7,0.6-1.3,1.3-1.3V145l-14.9,14.9c-1.1,1.1-1.7,2.6-1.7,4.2v22.6
						c0,1.6,1.3,2.8,2.8,2.8h13.8v-2.7C1243.1,186.8,1242.5,186.2,1242.5,185.5z M1235.2,185.5c0,0.7-0.6,1.3-1.3,1.3
						s-1.3-0.6-1.3-1.3v-22.6c0-0.7,0.6-1.3,1.3-1.3s1.3,0.6,1.3,1.3V185.5z M1240.2,185.5c0,0.7-0.6,1.3-1.3,1.3s-1.3-0.6-1.3-1.3
						v-22.6c0-0.7,0.6-1.3,1.3-1.3s1.3,0.6,1.3,1.3V185.5z"/>
				</g>
			</g>
		</g>
	</g>
	<rect x="1099" y="21" class="st37" width="177" height="18"/>
	<path class="st41" d="M302,227V124c0,0,0-36,42-36s44,39,44,39"/>
</g>
<g id="Layer_7">
	<g>
		<path class="st7" d="M675.1,430.2c-148.8,0-269.3-21.7-269.3-48.4h-1.2v202.5c0,78.9,64.6,143.5,143.5,143.5h251.6
			c78.9,0,143.5-64.6,143.5-143.5v-198C930.7,410.9,815.4,430.2,675.1,430.2z"/>
		<g class="st31">
			
				<image style="overflow:visible;" width="611" height="419" xlink:href="34F4297491C7622F.png"  transform="matrix(1 0 0 1 368 346)">
			</image>
		</g>
	</g>
	<g>
		<circle class="st32" cx="787.8" cy="589.4" r="47.2"/>
		<g>
			
				<image style="overflow:visible;opacity:0.75;" width="146" height="147" xlink:href="A749FDD911D12DFE.png"  transform="matrix(1 0 0 1 722 523)">
			</image>
			<g>
				<g>
					<path class="st42" d="M787.8,616.3c-20.1,0-36.7-13.9-39.3-32c-0.2,1.7-0.3,3.4-0.3,5.1c0,21.9,17.7,39.6,39.6,39.6
						s39.6-17.7,39.6-39.6c0-1.7-0.1-3.4-0.3-5.1C824.4,602.4,807.8,616.3,787.8,616.3z"/>
					<path class="st42" d="M787.8,616.3c20.1,0,36.7-13.9,39.3-32c-2.5-19.5-19.1-34.6-39.3-34.6c-20.2,0-36.8,15.1-39.3,34.6
						C751.1,602.4,767.7,616.3,787.8,616.3z"/>
				</g>
			</g>
		</g>
		<g>
			<g class="st35">
				
					<image style="overflow:visible;" width="260" height="248" xlink:href="A749FDD911D12DFD.png"  transform="matrix(1 0 0 1 658 459)">
				</image>
			</g>
		</g>
		<text transform="matrix(1 0 0 1 778.2881 599.7822)" class="st43 st44 st45">?</text>
	</g>
	<g>
		<circle class="st32" cx="623.8" cy="598.4" r="92.3"/>
		<g>
			
				<image style="overflow:visible;opacity:0.75;" width="222" height="222" xlink:href="A749FDD911D12DFA.png"  transform="matrix(1 0 0 1 520 494)">
			</image>
			<g>
				<g>
					<path class="st33" d="M623.8,651c-39.2,0-71.7-27.2-76.8-62.6c-0.4,3.3-0.7,6.6-0.7,9.9c0,42.8,34.7,77.5,77.5,77.5
						c42.8,0,77.5-34.7,77.5-77.5c0-3.4-0.2-6.7-0.7-9.9C695.4,623.8,663,651,623.8,651z"/>
					<path class="st34" d="M623.8,651c39.2,0,71.7-27.2,76.8-62.6c-4.9-38.1-37.4-67.5-76.8-67.5c-39.4,0-72,29.5-76.8,67.5
						C552.1,623.8,584.5,651,623.8,651z"/>
				</g>
			</g>
		</g>
		<g>
			<g class="st35">
				
					<image style="overflow:visible;" width="335" height="312" xlink:href="A749FDD911D12DE5.png"  transform="matrix(1 0 0 1 456 430)">
				</image>
			</g>
		</g>
		<text transform="matrix(1 0 0 1 566.2357 607.6695)" class="st43 st44 st46">START</text>
	</g>
</g>
</svg>
