<svg xmlns="http://www.w3.org/2000/svg" viewBox="0 0 435.68 528.29"><title>Asset 1bc</title><g id="Layer_2" data-name="Layer 2"><g id="Layer_1-2" data-name="Layer 1"><path d="M401.72,50.31,359.57,8.15a22.71,22.71,0,0,0-32.11,0L272.39,63.21a22.71,22.71,0,0,0,0,32.11l15.2,15.2L120.42,277.71l10.18,9.49L299.34,122.28l15.2,15.2a22.71,22.71,0,0,0,32.11,0l55.06-55.06A22.71,22.71,0,0,0,401.72,50.31ZM286.22,72.66l48.87-48.87a6.76,6.76,0,0,1,9.56,9.56L295.78,82.22a6.76,6.76,0,1,1-9.56-9.56Zm20.72,30.28a6.76,6.76,0,0,1,0-9.56L355.81,44.5a6.76,6.76,0,1,1,9.56,9.56L316.5,102.93A6.76,6.76,0,0,1,306.94,102.93Zm80.21-27.09-48.87,48.87a6.76,6.76,0,0,1-9.56-9.56l48.87-48.87a6.76,6.76,0,0,1,9.56,9.56Z" style="fill:#cac7c7;stroke:#929292;stroke-linecap:round;stroke-miterlimit:10;stroke-width:3px"/><path d="M130.6,278.88h0a16.57,16.57,0,0,0-23.44,0L31.9,354.13a16.57,16.57,0,0,0,0,23.44h0a16.57,16.57,0,0,0,23.44,0l75.26-75.26A16.57,16.57,0,0,0,130.6,278.88Zm-88,95.71a8,8,0,1,1,8-8A8,8,0,0,1,42.6,374.59Z" style="fill:#cf6c56;stroke:#929292;stroke-linecap:round;stroke-miterlimit:10;stroke-width:3px"/><path d="M33.7,82.42l55.06,55.06a22.71,22.71,0,0,0,32.11,0l15.2-15.2L304.82,287.19,315,277.71,147.83,110.53,163,95.33a22.71,22.71,0,0,0,0-32.11L108,8.15a22.71,22.71,0,0,0-32.11,0L33.7,50.31A22.71,22.71,0,0,0,33.7,82.42Zm115.5-.2a6.76,6.76,0,0,1-9.56,0L90.77,33.35a6.76,6.76,0,0,1,9.56-9.56L149.2,72.66A6.76,6.76,0,0,1,149.2,82.22Zm-30.28,20.72L70,54.06a6.76,6.76,0,0,1,9.56-9.56l48.87,48.87a6.76,6.76,0,0,1-9.56,9.56ZM48.27,66.28a6.76,6.76,0,0,1,9.56,0l48.87,48.87a6.76,6.76,0,0,1-9.56,9.56L48.27,75.84A6.76,6.76,0,0,1,48.27,66.28Z" style="fill:#cac7c7;stroke:#929292;stroke-linecap:round;stroke-miterlimit:10;stroke-width:3px"/><path d="M304.82,302.31l75.26,75.26a16.57,16.57,0,0,0,23.44,0h0a16.57,16.57,0,0,0,0-23.44l-75.26-75.26a16.57,16.57,0,0,0-23.44,0h0A16.57,16.57,0,0,0,304.82,302.31Zm80,64.28a8,8,0,1,1,8,8A8,8,0,0,1,384.83,366.6Z" style="fill:#cf6c56;stroke:#929292;stroke-linecap:round;stroke-miterlimit:10;stroke-width:3px"/><path d="M278.32,253.21a296.43,296.43,0,0,1-121,0q9.23-38.6,0-79c0-12.89,121-12.89,121,0C272,201.74,271.35,228.17,278.32,253.21Z" style="fill:#f6f6f6;stroke:#929292;stroke-linecap:round;stroke-miterlimit:10;stroke-width:3.72661503090065px"/><path d="M233.49,132.14c-10.66-5.8-25.43-9.39-41.75-9.39-32.5,0-58.84,14.24-58.84,31.8,0,14.31,17.48,26.41,41.52,30.4" style="fill:#f6f6f6;stroke:#929292;stroke-linecap:round;stroke-miterlimit:10;stroke-width:3.72661503090065px"/><path d="M203.56,138c9-10.34,27.74-16.79,48.89-15.58,29.13,1.67,51.91,17.24,50.87,34.77-.76,12.9-14.2,23.27-32.84,27.19" style="fill:#f6f6f6;stroke:#929292;stroke-linecap:round;stroke-miterlimit:10;stroke-width:3.72661503090065px"/><ellipse cx="223.62" cy="164.58" rx="41.37" ry="22.76" style="fill:#f6f6f6"/><path d="M188.11,194c3.25,16.12,2.94,33.22,0,51" style="fill:#f6f6f6;stroke:#929292;stroke-linecap:round;stroke-miterlimit:10;stroke-width:2.48441002060044px"/><path d="M247.57,194c-3.25,16.12-2.94,33.22,0,51" style="fill:#f6f6f6;stroke:#929292;stroke-linecap:round;stroke-miterlimit:10;stroke-width:2.48441002060044px"/><line x1="217.84" y1="190.18" x2="217.84" y2="247.69" style="fill:#f6f6f6;stroke:#929292;stroke-linecap:round;stroke-miterlimit:10;stroke-width:2.48441002060044px"/><path d="M157.78,235.38q-1.1,9.07-2.8,18.07a249.64,249.64,0,0,0,127.26,0q-2-8.95-3.19-18.07C237,250.06,196.66,249.41,157.78,235.38Z" style="fill:#f6f6f6;stroke:#929292;stroke-linecap:round;stroke-miterlimit:10;stroke-width:3.72661503090065px"/><text transform="translate(69.73 333.68)" style="font-size:30px;fill:#1d1d1b;font-family:MyriadPro-Bold, Myriad Pro;font-weight:700"><tspan style="letter-spacing:-0.030013020833333334em">C</tspan><tspan x="16.95" y="0">OOKING CHALLENGE</tspan></text><path d="M382.5,340.32c-106.34,20-216.11,18.89-328.75,0V284c112.65,18.78,222.41,19.9,328.75,0Z" style="fill:#f6f6f6;stroke:#929292;stroke-linecap:round;stroke-miterlimit:10;stroke-width:3.72661503090065px"/><text transform="translate(74.94 327.8) rotate(7.66)" style="font-size:30px;fill:#3c3c3b;font-family:MyriadPro-Bold, Myriad Pro;font-weight:700">C</text><text transform="translate(91.64 330.07) rotate(6.67)" style="font-size:30px;fill:#3c3c3b;font-family:MyriadPro-Bold, Myriad Pro;font-weight:700">O</text><text transform="translate(112.92 332.57) rotate(5.51)" style="font-size:30px;fill:#3c3c3b;font-family:MyriadPro-Bold, Myriad Pro;font-weight:700">O</text><text transform="translate(134.24 334.61) rotate(4.4)" style="font-size:30px;fill:#3c3c3b;font-family:MyriadPro-Bold, Myriad Pro;font-weight:700">K</text><text transform="translate(152.54 335.99) rotate(3.64)" style="font-size:30px;fill:#3c3c3b;font-family:MyriadPro-Bold, Myriad Pro;font-weight:700">I</text><text transform="translate(160.99 336.57) rotate(2.8)" style="font-size:30px;fill:#3c3c3b;font-family:MyriadPro-Bold, Myriad Pro;font-weight:700">N</text><text transform="matrix(1, 0.03, -0.03, 1, 181.57, 337.57)" style="font-size:30px;fill:#3c3c3b;font-family:MyriadPro-Bold, Myriad Pro;font-weight:700">G</text><text transform="translate(201.95 338.09) rotate(0.79)" style="font-size:30px;fill:#3c3c3b;font-family:MyriadPro-Bold, Myriad Pro;font-weight:700"> </text><text transform="translate(207.95 338.21) rotate(0.06)" style="font-size:30px;fill:#3c3c3b;font-family:MyriadPro-Bold, Myriad Pro;font-weight:700">C</text><text transform="translate(225.7 338.24) rotate(-1.13)" style="font-size:30px;fill:#3c3c3b;font-family:MyriadPro-Bold, Myriad Pro;font-weight:700">H</text><text transform="translate(246.26 337.83) rotate(-2.4)" style="font-size:30px;fill:#3c3c3b;font-family:MyriadPro-Bold, Myriad Pro;font-weight:700">A</text><text transform="matrix(1, -0.06, 0.06, 1, 265.83, 336.99)" style="font-size:30px;fill:#3c3c3b;font-family:MyriadPro-Bold, Myriad Pro;font-weight:700">L</text><text transform="translate(281.04 336.06) rotate(-4.52)" style="font-size:30px;fill:#3c3c3b;font-family:MyriadPro-Bold, Myriad Pro;font-weight:700">L</text><text transform="translate(296.26 334.86) rotate(-5.55)" style="font-size:30px;fill:#3c3c3b;font-family:MyriadPro-Bold, Myriad Pro;font-weight:700">E</text><text transform="matrix(0.99, -0.12, 0.12, 0.99, 312.09, 333.35)" style="font-size:30px;fill:#3c3c3b;font-family:MyriadPro-Bold, Myriad Pro;font-weight:700">N</text><text transform="translate(332.52 330.92) rotate(-8.16)" style="font-size:30px;fill:#3c3c3b;font-family:MyriadPro-Bold, Myriad Pro;font-weight:700">G</text><text transform="translate(352.67 328.01) rotate(-9.41)" style="font-size:30px;fill:#3c3c3b;font-family:MyriadPro-Bold, Myriad Pro;font-weight:700">E</text></g></g></svg>